<svg width="113" height="113" viewBox="0 0 113 113" fill="none" xmlns="http://www.w3.org/2000/svg">
<g filter="url(#filter0_d_2062_37)">
<path d="M4 10C4 4.47715 8.47715 0 14 0H99C104.523 0 109 4.47715 109 10V95C109 100.523 104.523 105 99 105H14C8.47715 105 4 100.523 4 95V10Z" fill="white"/>
<rect x="12" y="8" width="90" height="90" rx="10" fill="white"/>
<g filter="url(#filter1_ii_2062_37)">
<path fill-rule="evenodd" clip-rule="evenodd" d="M43.7956 32.19C51.8412 31.2908 60.1589 31.2908 68.2045 32.19C72.6341 32.6851 76.2068 36.1753 76.7267 40.6204C77.6887 48.8454 77.6887 57.1545 76.7267 65.3795C76.2068 69.8246 72.6341 73.3148 68.2045 73.8098C60.1589 74.7091 51.8412 74.7091 43.7956 73.8098C39.366 73.3148 35.7932 69.8246 35.2733 65.3795C34.3113 57.1545 34.3113 48.8454 35.2733 40.6204C35.7932 36.1753 39.366 32.6851 43.7956 32.19ZM53.3703 63.2827C53.4844 63.0105 53.543 62.7188 53.5427 62.4242V41.2364C53.5427 40.0021 52.5269 38.9999 51.2699 38.9999H44.2669C43.0158 38.9999 42 40.0032 42 41.2364V62.4242C42.0006 63.0177 42.2395 63.5869 42.6643 64.0071C43.0891 64.4273 43.6653 64.6644 44.2669 64.6666H51.2699C51.5684 64.6669 51.8641 64.6091 52.14 64.4965C52.4159 64.3839 52.6666 64.2188 52.8777 64.0105C53.0888 63.8022 53.2562 63.5549 53.3703 63.2827ZM69.336 54.6741C69.7609 54.2538 69.9997 53.6845 70 53.0909V41.2364C70 40.0021 68.983 38.9999 67.7331 38.9999H60.7301C59.4802 38.9999 58.4573 40.0032 58.4573 41.2364V53.0909C58.4579 53.6854 58.6976 54.2554 59.1237 54.6758C59.5498 55.0962 60.1275 55.3326 60.7301 55.3332H67.7331C68.3348 55.3314 68.9112 55.0944 69.336 54.6741Z" fill="black"/>
</g>
</g>
<defs>
<filter id="filter0_d_2062_37" x="0" y="0" width="113" height="113" filterUnits="userSpaceOnUse" color-interpolation-filters="sRGB">
<feFlood flood-opacity="0" result="BackgroundImageFix"/>
<feColorMatrix in="SourceAlpha" type="matrix" values="0 0 0 0 0 0 0 0 0 0 0 0 0 0 0 0 0 0 127 0" result="hardAlpha"/>
<feOffset dy="4"/>
<feGaussianBlur stdDeviation="2"/>
<feComposite in2="hardAlpha" operator="out"/>
<feColorMatrix type="matrix" values="0 0 0 0 0 0 0 0 0 0 0 0 0 0 0 0 0 0 0.25 0"/>
<feBlend mode="normal" in2="BackgroundImageFix" result="effect1_dropShadow_2062_37"/>
<feBlend mode="normal" in="SourceGraphic" in2="effect1_dropShadow_2062_37" result="shape"/>
</filter>
<filter id="filter1_ii_2062_37" x="27" y="25" width="58" height="57" filterUnits="userSpaceOnUse" color-interpolation-filters="sRGB">
<feFlood flood-opacity="0" result="BackgroundImageFix"/>
<feBlend mode="normal" in="SourceGraphic" in2="BackgroundImageFix" result="shape"/>
<feColorMatrix in="SourceAlpha" type="matrix" values="0 0 0 0 0 0 0 0 0 0 0 0 0 0 0 0 0 0 127 0" result="hardAlpha"/>
<feOffset dx="-1" dy="1"/>
<feGaussianBlur stdDeviation="1"/>
<feComposite in2="hardAlpha" operator="arithmetic" k2="-1" k3="1"/>
<feColorMatrix type="matrix" values="0 0 0 0 0.156863 0 0 0 0 0.0980392 0 0 0 0 0.0627451 0 0 0 0.3 0"/>
<feBlend mode="normal" in2="shape" result="effect1_innerShadow_2062_37"/>
<feColorMatrix in="SourceAlpha" type="matrix" values="0 0 0 0 0 0 0 0 0 0 0 0 0 0 0 0 0 0 127 0" result="hardAlpha"/>
<feOffset dx="1" dy="1"/>
<feGaussianBlur stdDeviation="0.5"/>
<feComposite in2="hardAlpha" operator="arithmetic" k2="-1" k3="1"/>
<feColorMatrix type="matrix" values="0 0 0 0 0.7 0 0 0 0 0.7 0 0 0 0 0.7 0 0 0 0.25 0"/>
<feBlend mode="normal" in2="effect1_innerShadow_2062_37" result="effect2_innerShadow_2062_37"/>
</filter>
</defs>
</svg>
