<svg width="48" height="48" viewBox="0 0 48 48" fill="none" xmlns="http://www.w3.org/2000/svg">
<path fill-rule="evenodd" clip-rule="evenodd" d="M3.29975 20.6637C16.1846 13.8898 24.7766 9.42401 29.0756 7.26636C41.3501 1.10586 43.9006 0.0357136 45.563 0.00037677C45.9286 -0.00739518 46.7462 0.101946 47.2757 0.620448C47.7229 1.05826 47.8459 1.64969 47.9048 2.06478C47.9636 2.47988 48.0369 3.42548 47.9787 4.16434C47.3135 12.5976 44.4354 33.0629 42.9711 42.5083C42.3516 46.505 41.1316 47.8451 39.9506 47.9762C37.3838 48.2612 35.4348 45.9294 32.9488 43.963C29.0587 40.886 26.8611 38.9706 23.0851 35.968C18.7213 32.498 21.5502 30.5908 24.0371 27.474C24.6879 26.6583 35.9969 14.246 36.2158 13.12C36.2432 12.9792 36.2686 12.4543 36.0101 12.1771C35.7517 11.8999 35.3703 11.9947 35.095 12.0701C34.7049 12.177 28.4904 17.1334 16.4517 26.9393C14.6877 28.4009 13.09 29.1131 11.6585 29.0757C10.0804 29.0346 7.04466 27.999 4.78794 27.1139C2.01998 26.0282 -0.179935 25.4541 0.0116285 23.6103C0.111407 22.6499 1.20745 21.6677 3.29975 20.6637Z" fill="#563D82"/>
</svg>
