<svg width="27" height="26" viewBox="0 0 27 26" fill="none" xmlns="http://www.w3.org/2000/svg">
<path d="M1.83203 24.1672H25.1654M1.83203 24.1672V18.3338L13.4987 6.66716M1.83203 24.1672L7.66536 24.1671L19.332 12.5005M13.4987 6.66716L17.6821 2.48371L17.6846 2.48123C18.2605 1.90536 18.5489 1.61691 18.8815 1.50888C19.1743 1.41371 19.4899 1.41371 19.7828 1.50888C20.115 1.61684 20.4032 1.90495 20.9782 2.48001L23.5154 5.01721C24.0929 5.59473 24.3818 5.88363 24.49 6.21661C24.5852 6.50951 24.5852 6.82501 24.49 7.1179C24.3819 7.45065 24.0934 7.7391 23.5167 8.3158L23.5154 8.31704L19.332 12.5005M13.4987 6.66716L19.332 12.5005" stroke="white" stroke-width="2" stroke-linecap="round" stroke-linejoin="round"/>
</svg>
